<?xml version="1.0" standalone="no"?>
<!DOCTYPE svg PUBLIC "-//W3C//DTD SVG 20010904//EN"
 "http://www.w3.org/TR/2001/REC-SVG-20010904/DTD/svg10.dtd">
<svg version="1.0" xmlns="http://www.w3.org/2000/svg"
 width="512.000000pt" height="512.000000pt" viewBox="0 0 512.000000 512.000000"
 preserveAspectRatio="xMidYMid meet">
<metadata>
Created by potrace 1.11, written by Peter Selinger 2001-2013
</metadata>
<g transform="translate(0.000000,512.000000) scale(0.100000,-0.100000)"
fill="#000000" stroke="none">
<path d="M1524 5104 c22 -21 20 -27 -4 -14 -24 13 -26 7 -4 -14 13 -14 13 -16
1 -16 -8 0 -17 -9 -20 -20 -3 -12 -1 -18 5 -14 6 4 8 1 6 -7 -3 -8 -10 -13
-16 -12 -6 2 -14 -14 -17 -35 -3 -20 -10 -44 -15 -53 -5 -10 -4 -21 3 -29 9
-10 6 -10 -13 0 -23 12 -24 12 -11 -3 10 -13 10 -17 1 -17 -7 0 -10 -8 -7 -20
3 -11 1 -18 -4 -14 -8 5 -13 -10 -10 -29 1 -5 -3 -6 -9 -2 -6 3 -18 -1 -27
-11 -16 -16 -16 -16 6 -9 21 6 22 5 10 -8 -8 -8 -17 -13 -21 -10 -5 2 -8 -2
-8 -11 0 -8 -6 -17 -12 -19 -10 -4 -10 -6 0 -6 9 -1 6 -8 -7 -22 -11 -12 -17
-27 -15 -34 3 -7 -4 -20 -16 -28 -13 -9 -17 -18 -11 -21 5 -4 8 -13 4 -22 -4
-11 -9 -12 -18 -4 -11 9 -12 4 -5 -24 7 -31 6 -34 -9 -27 -14 8 -16 2 -16 -40
0 -42 -2 -47 -12 -32 -15 20 -17 9 -3 -17 7 -13 6 -21 -5 -30 -8 -7 -15 -9
-15 -4 0 5 -5 2 -10 -6 -5 -8 -7 -23 -4 -34 4 -13 2 -16 -6 -11 -9 6 -9 3 -1
-13 14 -26 14 -43 0 -19 -5 9 -15 17 -22 17 -8 0 -8 -3 1 -9 17 -10 17 -21 2
-31 -16 -10 -24 -63 -8 -55 7 4 4 -1 -7 -10 -14 -13 -16 -19 -7 -22 9 -3 4
-13 -15 -30 l-28 -25 25 7 c24 7 24 6 6 -7 -10 -8 -16 -20 -12 -26 6 -10 -25
-35 -35 -29 -3 1 -1 -2 3 -7 4 -5 3 -15 -3 -23 -8 -9 -8 -17 0 -26 6 -8 7 -17
3 -21 -4 -4 -7 -11 -7 -15 0 -3 -10 -18 -23 -31 -20 -21 -22 -22 -16 -5 6 18
4 17 -10 -2 -18 -24 -42 -32 -31 -10 4 6 -2 2 -13 -10 -11 -12 -23 -19 -28
-15 -5 4 0 -3 10 -15 16 -19 17 -25 5 -40 -12 -17 -12 -17 6 -1 16 15 17 19 4
34 -8 11 -9 15 -2 10 12 -6 33 -47 47 -90 6 -17 5 -17 -10 -5 -16 13 -16 12
-6 -7 9 -17 9 -21 -1 -20 -6 0 -12 -2 -12 -5 0 -3 -6 -13 -13 -21 -7 -9 -10
-24 -6 -34 4 -14 3 -16 -4 -5 -6 8 -15 10 -23 5 -12 -6 -12 -5 -1 8 11 14 10
16 -8 11 -12 -3 -19 -11 -16 -19 3 -8 0 -11 -9 -7 -8 3 -12 10 -8 16 3 6 1 7
-5 3 -9 -5 -8 -17 3 -43 21 -49 18 -55 -6 -13 -12 22 -18 28 -17 15 3 -23 25
-48 44 -51 8 -1 10 4 7 14 -4 12 -1 11 10 -3 18 -23 12 -39 -10 -30 -13 4 -14
3 -3 -10 7 -8 17 -12 23 -8 6 3 7 1 3 -6 -4 -6 -12 -9 -17 -5 -5 3 -16 0 -25
-6 -12 -10 -12 -16 -2 -28 11 -14 10 -15 -7 -8 -15 5 -17 4 -8 -5 6 -6 9 -18
6 -27 -4 -9 -2 -13 4 -9 5 3 10 0 10 -8 0 -8 -3 -13 -6 -11 -3 2 -14 -7 -24
-19 -16 -23 -16 -24 0 -35 16 -11 16 -11 1 -6 -10 3 -20 1 -23 -4 -4 -6 0 -10
7 -10 8 0 6 -5 -5 -11 -14 -8 -15 -14 -6 -32 l12 -22 -24 20 c-13 11 -19 13
-12 6 8 -9 9 -20 3 -31 -5 -10 -5 -22 2 -31 8 -11 8 -9 3 6 -5 17 -4 18 7 7
11 -12 9 -16 -9 -29 -21 -14 -21 -16 -7 -39 9 -13 21 -21 27 -17 6 3 7 1 3 -6
-6 -9 -11 -9 -22 0 -17 14 -19 -2 -1 -20 10 -11 8 -11 -12 -1 -19 10 -22 10
-15 -2 5 -7 9 -23 9 -35 1 -21 0 -22 -20 -5 -11 9 -15 10 -8 3 9 -11 9 -21 -2
-47 -12 -28 -11 -32 1 -27 8 3 12 8 10 12 -3 4 0 13 5 21 7 11 8 9 6 -9 -2
-13 -12 -30 -22 -37 -17 -13 -13 -19 9 -15 5 1 4 -5 -4 -13 -7 -9 -9 -16 -4
-16 5 0 0 -7 -10 -15 -20 -15 -20 -15 0 -16 15 -1 14 -3 -6 -9 -21 -7 -22 -8
-5 -9 16 -1 17 -3 5 -10 -8 -6 -18 -7 -24 -4 -5 3 -6 1 -2 -6 4 -6 11 -9 15
-7 4 3 8 -4 8 -15 1 -10 -3 -19 -8 -19 -6 0 -7 6 -3 13 5 8 2 8 -9 -2 -20 -16
-22 -22 -4 -19 7 2 11 -5 9 -16 -3 -14 1 -17 13 -12 9 3 13 2 10 -4 -3 -6 -15
-10 -26 -10 -10 0 -19 -5 -19 -11 0 -6 6 -9 13 -6 19 7 15 -26 -7 -54 -17 -24
-17 -24 -2 3 9 16 12 28 6 28 -5 0 -10 -5 -10 -11 0 -5 -4 -8 -8 -5 -5 3 -8
-8 -7 -24 1 -16 -2 -27 -6 -24 -4 2 -10 0 -13 -5 -4 -5 -14 -8 -24 -6 -9 2
-19 4 -22 4 -3 1 2 6 10 11 16 10 13 11 -31 14 -17 1 -25 -2 -22 -10 6 -16
-14 -28 -22 -14 -5 8 -11 8 -20 0 -10 -8 -15 -8 -20 0 -5 8 -10 8 -20 0 -10
-8 -17 -5 -29 12 -9 12 -16 18 -16 13 0 -6 -10 -16 -23 -24 -12 -7 -19 -10
-15 -6 9 10 -22 35 -42 34 -10 0 -8 -3 5 -9 18 -8 17 -9 -7 -9 -15 -1 -30 -6
-33 -11 -5 -8 -11 -8 -20 0 -10 8 -15 8 -21 -1 -4 -7 -3 -9 3 -6 5 3 10 0 10
-7 0 -14 -32 -15 -44 -1 -5 4 -2 5 6 0 10 -6 12 -4 7 4 -6 8 -12 9 -20 2 -7
-6 -17 -7 -21 -3 -5 4 -5 1 -1 -6 4 -7 12 -9 18 -6 6 4 8 3 5 -3 -3 -5 -20 -8
-37 -5 -18 2 -30 0 -30 -7 0 -6 -3 -10 -7 -10 -25 4 -43 -2 -37 -13 5 -7 2 -9
-8 -5 -22 8 -30 -3 -15 -21 9 -13 9 -14 0 -8 -8 4 -27 -7 -49 -28 -21 -20 -33
-36 -28 -36 4 0 19 12 32 28 l24 27 -21 -32 c-12 -17 -21 -36 -21 -41 0 -5 -7
-13 -16 -16 -14 -5 -15 -4 -4 9 7 8 8 15 2 15 -5 0 -12 -6 -14 -12 -6 -17 2
-39 11 -34 4 3 8 -1 8 -9 0 -11 -5 -12 -21 -3 -17 8 -19 8 -9 -2 6 -7 9 -19 6
-26 -3 -8 0 -14 7 -14 6 0 8 5 4 12 -5 7 -3 8 6 3 10 -6 9 -11 -5 -22 -13 -8
-14 -13 -5 -13 7 0 11 -3 7 -6 -3 -3 -2 -17 4 -31 7 -18 6 -23 -4 -18 -6 4 -3
-1 7 -9 11 -9 14 -16 7 -16 -7 0 -10 -4 -7 -9 3 -5 -1 -11 -9 -15 -8 -3 -15
-13 -15 -21 0 -12 -7 -8 -26 12 -14 15 -22 21 -18 13 4 -8 -3 -5 -15 8 -12 12
-24 22 -26 22 -3 0 -5 -243 -5 -540 0 -323 4 -539 9 -535 10 5 27 -33 22 -49
-1 -5 5 -4 13 3 12 10 14 8 12 -13 -2 -19 1 -24 15 -21 14 3 19 -2 19 -21 0
-13 4 -24 10 -24 5 0 7 7 3 16 -5 14 -3 14 15 -1 11 -10 18 -24 14 -33 -4 -11
-2 -13 8 -7 10 6 12 4 7 -8 -4 -11 -2 -14 9 -10 7 3 14 0 14 -7 0 -7 7 -10 14
-7 10 4 13 1 9 -8 -3 -8 -9 -12 -14 -9 -5 3 -9 0 -9 -5 0 -15 13 -14 29 2 11
10 13 10 7 0 -5 -8 -1 -13 10 -13 14 0 15 -2 3 -17 -10 -11 -10 -14 -2 -9 7 4
13 2 13 -3 0 -6 10 -11 23 -11 18 0 19 -2 7 -10 -10 -7 -11 -10 -2 -11 12 -2
26 -5 40 -9 4 -1 10 -2 13 -2 3 1 6 -6 6 -14 0 -12 -3 -12 -18 2 -13 12 -19
12 -25 3 -4 -7 -3 -10 3 -6 6 4 16 0 23 -8 7 -8 16 -12 21 -9 5 3 9 0 9 -5 0
-6 9 -11 20 -11 18 0 25 -11 21 -34 -1 -5 5 -3 14 4 13 11 14 10 9 -5 -6 -14
-3 -16 17 -10 18 5 21 4 9 -4 -14 -10 -7 -15 13 -12 5 1 6 -3 2 -9 -3 -5 -1
-10 5 -10 6 0 8 -4 5 -10 -3 -5 -1 -11 4 -11 6 -1 14 -2 19 -3 4 0 19 -10 34
-22 20 -16 24 -24 16 -37 -5 -10 -6 -17 -1 -16 19 3 34 -2 29 -10 -3 -5 2 -8
12 -7 9 0 16 -5 15 -11 -2 -7 0 -12 5 -12 19 3 33 -2 27 -10 -3 -6 7 -8 22 -6
16 2 22 2 16 -1 -17 -8 -17 -25 0 -18 8 3 20 -3 28 -13 13 -17 13 -17 -6 -3
-18 14 -19 13 -8 -1 7 -9 10 -19 6 -23 -4 -4 -1 -5 7 -2 8 3 22 1 30 -4 13 -9
13 -11 0 -20 -11 -8 -8 -9 13 -4 25 6 32 -1 28 -28 -1 -7 20 -5 35 4 15 10 74
-33 74 -54 0 -9 5 -20 10 -23 8 -5 7 -12 -2 -23 -10 -14 -10 -15 1 -5 10 9 18
9 31 0 14 -8 23 -7 36 4 11 9 15 9 10 2 -7 -12 4 -17 30 -14 7 1 15 -6 18 -15
5 -14 4 -15 -8 -5 -11 9 -16 9 -22 0 -4 -7 -3 -9 3 -6 6 4 18 -2 27 -12 9 -10
27 -17 41 -15 14 1 27 -2 31 -7 3 -5 10 -7 15 -4 5 4 6 -2 2 -11 -5 -13 -3
-16 10 -11 9 3 17 2 17 -3 0 -6 -8 -10 -17 -10 -14 0 -15 -2 -4 -9 10 -7 10
-10 1 -13 -10 -3 -10 -9 0 -28 13 -24 12 -24 -5 -10 -10 8 -16 10 -13 5 4 -6
3 -17 -3 -25 -7 -12 -9 -11 -9 5 0 17 -2 17 -10 5 -7 -11 -10 -11 -10 -2 0 8
-5 10 -12 6 -7 -5 -9 -2 -5 8 4 11 0 15 -11 14 -9 -2 -18 -8 -18 -14 -1 -7 -2
-14 -3 -17 0 -3 -11 0 -23 6 l-23 12 19 -22 c15 -16 16 -20 4 -16 -12 5 -15 0
-12 -20 2 -20 -1 -25 -12 -21 -9 3 -12 1 -9 -4 3 -5 8 -19 10 -29 3 -14 -1
-19 -14 -16 -14 3 -17 -2 -15 -22 2 -19 -1 -23 -13 -19 -12 5 -13 4 -5 -7 12
-14 7 -27 -10 -27 -5 0 -6 5 -2 12 4 7 3 8 -5 4 -6 -4 -9 -12 -6 -17 4 -5 0
-9 -7 -9 -10 0 -9 -3 2 -10 11 -7 9 -11 -13 -19 -15 -6 -30 -19 -34 -28 -4
-10 -11 -22 -17 -26 -6 -5 0 -6 14 -3 24 6 24 6 3 -5 -12 -6 -24 -22 -28 -36
-4 -16 -11 -23 -20 -19 -9 3 -12 0 -8 -10 3 -8 -1 -14 -11 -14 -10 0 -13 -5
-9 -17 5 -12 3 -14 -8 -9 -8 4 -5 0 5 -8 18 -14 232 -16 2203 -16 l2183 0 0
2560 0 2560 -334 0 c-311 -1 -335 -2 -329 -18 6 -14 4 -15 -9 -4 -12 10 -18
10 -28 -2 -6 -9 -8 -21 -4 -28 5 -8 1 -8 -11 2 -17 14 -18 13 -12 -4 7 -17 6
-17 -10 -5 -11 9 -14 10 -9 2 4 -8 1 -13 -8 -13 -9 0 -16 -6 -16 -13 0 -7 -9
-18 -20 -24 -16 -11 -21 -10 -29 5 -10 15 -10 15 -11 -3 0 -17 -2 -17 -10 -5
-7 11 -10 11 -10 2 0 -8 -5 -10 -12 -6 -10 6 -10 4 0 -8 11 -14 10 -16 -8 -11
-15 4 -19 2 -14 -10 3 -8 1 -18 -5 -22 -6 -3 -9 0 -5 8 5 14 -24 33 -34 22 -3
-3 0 -5 6 -5 7 0 12 -4 12 -10 0 -5 -7 -7 -15 -4 -9 4 -18 -2 -24 -17 -5 -13
-10 -19 -10 -13 -1 6 -8 11 -16 11 -10 0 -14 -6 -10 -15 4 -12 2 -12 -8 -4 -8
7 -17 9 -20 6 -3 -4 -9 5 -13 20 -3 14 -10 23 -15 20 -5 -3 -9 0 -9 7 0 8 -5
7 -17 -2 -11 -10 -14 -10 -9 -1 4 7 2 12 -4 12 -6 0 -8 5 -4 13 6 8 3 8 -9 -1
-14 -12 -16 -11 -13 5 3 13 -2 19 -14 19 -15 0 -17 -3 -7 -15 10 -12 9 -12
-10 -1 -12 8 -21 19 -20 24 1 6 -7 11 -18 12 -11 1 -29 5 -39 10 -14 5 -17 4
-12 -4 5 -8 1 -10 -10 -5 -15 6 -15 7 2 21 18 14 18 14 0 8 -10 -3 -26 -1 -34
6 -9 7 -13 9 -10 3 3 -5 -1 -16 -9 -24 -13 -12 -14 -11 -8 10 l8 24 -24 -20
c-18 -15 -20 -16 -10 -2 14 18 11 20 -34 20 -19 -1 -19 0 0 13 16 12 -153 14
-1119 14 -1037 0 -1136 -1 -1122 -16z m2916 -14 c0 -5 -5 -10 -11 -10 -5 0 -7
5 -4 10 3 6 8 10 11 10 2 0 4 -4 4 -10z m-490 -60 c0 -5 -5 -10 -11 -10 -5 0
-7 5 -4 10 3 6 8 10 11 10 2 0 4 -4 4 -10z m-2440 -44 c0 -2 -7 -7 -16 -10 -8
-3 -12 -2 -9 4 6 10 25 14 25 6z m-149 -313 c13 -16 12 -17 -3 -4 -10 7 -18
15 -18 17 0 8 8 3 21 -13z m-124 -278 c0 -8 -4 -12 -9 -9 -4 3 -8 9 -8 15 0 5
4 9 8 9 5 0 9 -7 9 -15z m-27 -89 c0 -2 -7 -7 -16 -10 -8 -3 -12 -2 -9 4 6 10
25 14 25 6z m-250 -686 c0 -5 -5 -10 -11 -10 -5 0 -7 5 -4 10 3 6 8 10 11 10
2 0 4 -4 4 -10z m-14 -112 c4 -7 4 -10 -1 -6 -4 4 -15 2 -24 -5 -14 -11 -14
-10 -2 6 16 20 18 21 27 5z m-59 -184 c-3 -3 -12 -4 -19 -1 -8 3 -5 6 6 6 11
1 17 -2 13 -5z m-205 -491 c-6 -2 -9 -10 -6 -15 4 -7 2 -8 -5 -4 -13 9 -5 26
12 25 9 0 8 -2 -1 -6z m-411 -76 c-10 -9 -11 -8 -5 6 3 10 9 15 12 12 3 -3 0
-11 -7 -18z m-144 -343 c-3 -3 -12 -4 -19 -1 -8 3 -5 6 6 6 11 1 17 -2 13 -5z
m483 -1558 c0 -3 -4 -8 -10 -11 -5 -3 -10 -1 -10 4 0 6 5 11 10 11 6 0 10 -2
10 -4z m154 -142 c3 -8 2 -12 -4 -9 -6 3 -10 10 -10 16 0 14 7 11 14 -7z m121
-94 l20 -25 -22 19 c-13 11 -23 24 -23 29 0 6 1 8 3 6 1 -2 11 -15 22 -29z
m122 -65 c0 -8 -4 -12 -9 -9 -5 3 -6 10 -3 15 9 13 12 11 12 -6z m33 5 c0 -5
-5 -10 -11 -10 -5 0 -7 5 -4 10 3 6 8 10 11 10 2 0 4 -4 4 -10z m-208 -402
c-7 -7 -12 -8 -12 -2 0 14 12 26 19 19 2 -3 -1 -11 -7 -17z"/>
<path d="M4321 5027 c-13 -21 -12 -21 5 -5 10 10 16 20 13 22 -3 3 -11 -5 -18
-17z"/>
<path d="M1140 4219 c0 -5 5 -7 10 -4 6 3 10 8 10 11 0 2 -4 4 -10 4 -5 0 -10
-5 -10 -11z"/>
<path d="M1118 4143 c7 -3 16 -2 19 1 4 3 -2 6 -13 5 -11 0 -14 -3 -6 -6z"/>
<path d="M1020 3891 c0 -6 4 -13 10 -16 6 -3 7 1 4 9 -7 18 -14 21 -14 7z"/>
<path d="M801 3097 c-8 -10 -7 -14 2 -14 8 0 14 6 14 14 0 7 -1 13 -2 13 -2 0
-8 -6 -14 -13z"/>
<path d="M470 2856 c0 -2 8 -10 18 -17 15 -13 16 -12 3 4 -13 16 -21 21 -21
13z"/>
<path d="M620 2840 c6 -11 13 -20 16 -20 2 0 0 9 -6 20 -6 11 -13 20 -16 20
-2 0 0 -9 6 -20z"/>
<path d="M541 2843 c-1 -16 16 -26 24 -13 5 8 11 8 20 0 10 -8 15 -8 21 1 4 7
3 9 -4 5 -6 -3 -14 -2 -17 4 -5 8 -11 8 -20 0 -10 -8 -14 -7 -18 2 -4 9 -6 9
-6 1z"/>
<path d="M726 2833 c-6 -14 -5 -15 5 -6 7 7 10 15 7 18 -3 3 -9 -2 -12 -12z"/>
<path d="M474 923 c2 -10 6 -16 11 -15 4 2 12 -2 16 -10 5 -7 9 -8 9 -2 0 6
-9 19 -19 28 -19 17 -19 17 -17 -1z"/>
<path d="M792 687 c10 -8 16 -17 13 -20 -3 -4 -2 -5 2 -2 3 3 13 -1 22 -8 14
-11 14 -10 2 6 -8 10 -24 23 -35 28 -19 9 -19 9 -4 -4z"/>
</g>
</svg>
